<svg width="38" height="38" viewBox="0 0 38 38" fill="none" 
    xmlns="http://www.w3.org/2000/svg">
    <path fillRule="evenodd" clipRule="evenodd" d="M6 7C6 4.79086 7.79086 3 10 3H18.5766C19.8892 3 21.1492 3.5162 22.0846 4.43717L30.508 12.731C31.4625 13.6708 31.9999 14.9543 31.9999 16.2938V31C31.9999 33.2091 30.2091 35 27.9999 35H10C7.79086 35 6 33.2091 6 31V7Z" stroke="#305DFF" strokeWidth="3"/>
    <path fillRule="evenodd" clipRule="evenodd" d="M30.2607 12.4874C30.8982 13.1151 30.4537 14.2 29.5591 14.2H24.625C22.4159 14.2 20.625 12.4091 20.625 10.2V5.38799C20.625 4.50082 21.6944 4.05298 22.3266 4.67543L30.2607 12.4874Z" stroke="#305DFF" strokeWidth="3"/>
</svg>
