<svg width="24" height="24" viewBox="0 0 24 24" fill="none" 
    xmlns="http://www.w3.org/2000/svg">
    <path d="M12 24C18.6274 24 24 18.6274 24 12C24 5.37258 18.6274 0 12 0C5.37258 0 0 5.37258 0 12C0 18.6274 5.37258 24 12 24Z" fill="#CC0700"/>
    <path fillRule="evenodd" clipRule="evenodd" d="M13 8C13 7.44772 12.5523 7 12 7C11.4477 7 11 7.44772 11 8V13C11 13.5523 11.4477 14 12 14C12.5523 14 13 13.5523 13 13V8ZM12 17C12.5523 17 13 16.5523 13 16C13 15.4477 12.5523 15 12 15C11.4477 15 11 15.4477 11 16C11 16.5523 11.4477 17 12 17Z" fill="white"/>
</svg>
