<svg width="20" height="21" viewBox="0 0 20 21" fill="none" 
    xmlns="http://www.w3.org/2000/svg">
    <path fillRule="evenodd" clipRule="evenodd" d="M2 1C2 0.447715 2.44772 0 3 0H17C17.5523 0 18 0.447715 18 1C18 1.55228 17.5523 2 17 2H16L17 11H19C19.5523 11 20 11.4477 20 12C20 12.5523 19.5523 13 19 13H11V20C11 20.5523 10.5523 21 10 21C9.44771 21 9 20.5523 9 20V13H1C0.447715 13 0 12.5523 0 12C0 11.4477 0.447715 11 1 11H3L4 2H3C2.44772 2 2 1.55228 2 1ZM5 11H15L14 2H6L5.5 6.5L5 11Z" fill="#0E4EFB"/>
</svg>
