<svg width="24" height="24" viewBox="0 0 24 24" fill="none" 
    xmlns="http://www.w3.org/2000/svg">
    <path fillRule="evenodd" clipRule="evenodd" d="M15 2C15 0.89543 14.1046 0 13 0H11C9.89542 0 8.99999 0.89543 8.99999 2V2.45826C7.58344 2.90324 6.30399 3.65424 5.23867 4.63224L4.83975 4.40192C3.88317 3.84964 2.65999 4.17739 2.1077 5.13397L1.1077 6.86602C0.842483 7.32539 0.770613 7.8713 0.907899 8.38366C1.04518 8.89602 1.38038 9.33286 1.83975 9.59807L2.23708 9.82747C2.08175 10.528 1.99999 11.2552 1.99999 12C1.99999 12.7448 2.08175 13.472 2.23708 14.1725L1.83975 14.4019C0.883165 14.9542 0.555415 16.1774 1.1077 17.134L2.1077 18.866C2.65998 19.8226 3.88316 20.1504 4.83975 19.5981L5.23867 19.3678C6.30399 20.3458 7.58344 21.0968 8.99999 21.5417V22C8.99999 23.1046 9.89542 24 11 24H13C14.1046 24 15 23.1046 15 22V21.5417C16.4165 21.0968 17.696 20.3458 18.7613 19.3678L19.1602 19.5981C20.1168 20.1504 21.34 19.8226 21.8923 18.866L22.8923 17.134C23.1575 16.6746 23.2294 16.1287 23.0921 15.6163C22.9548 15.104 22.6196 14.6671 22.1602 14.4019L21.7629 14.1725C21.9182 13.472 22 12.7448 22 12C22 11.2552 21.9182 10.528 21.7629 9.82748L22.1602 9.59807C22.6196 9.33286 22.9548 8.89602 23.0921 8.38366C23.2294 7.8713 23.1575 7.32539 22.8923 6.86602L21.8923 5.13397C21.6271 4.6746 21.1902 4.33941 20.6779 4.20212C20.1655 4.06483 19.6196 4.1367 19.1602 4.40192L18.7613 4.63224C17.696 3.65424 16.4165 2.90324 15 2.45826V2ZM5.62575 7.16512C6.89662 5.49221 8.81098 4.33486 11 4.06189V4V2H13V4V4.06189C15.189 4.33486 17.1034 5.49222 18.3742 7.16512L18.3747 7.16488L18.3757 7.1643L18.4282 7.13397L20.1602 6.13397L21.1602 7.86602L19.4282 8.86602L19.3757 8.89635C19.7777 9.8507 20 10.8994 20 12C20 13.1006 19.7777 14.1493 19.3757 15.1036L19.4282 15.134L21.1602 16.134L20.1602 17.866L18.4282 16.866L18.3757 16.8357L18.3745 16.835L18.3742 16.8349C17.1034 18.5078 15.189 19.6651 13 19.9381V20V22H11V20V19.9381C8.81098 19.6651 6.89662 18.5078 5.62575 16.8349L5.62432 16.8357L5.5718 16.866L3.83975 17.866L2.83975 16.134L4.5718 15.134L4.62432 15.1037C4.22224 14.1493 3.99999 13.1006 3.99999 12C3.99999 10.8994 4.22225 9.8507 4.62432 8.89635L4.5718 8.86602L2.83975 7.86602L3.83975 6.13397L5.5718 7.13397L5.62432 7.16429L5.62484 7.1646L5.62575 7.16512ZM15 12C15 13.6569 13.6569 15 12 15C10.3431 15 9 13.6569 9 12C9 10.3431 10.3431 9 12 9C13.6569 9 15 10.3431 15 12ZM17 12C17 14.7614 14.7614 17 12 17C9.23857 17 7 14.7614 7 12C7 9.23858 9.23857 7 12 7C14.7614 7 17 9.23858 17 12Z" fill="#444444"/>
</svg>
