<svg width="24" height="24" viewBox="0 0 24 24" fill="none" 
    xmlns="http://www.w3.org/2000/svg">
    <path fillRule="evenodd" clipRule="evenodd" d="M12 22C17.5228 22 22 17.5228 22 12C22 6.47715 17.5228 2 12 2C6.47715 2 2 6.47715 2 12C2 17.5228 6.47715 22 12 22ZM12 24C18.6274 24 24 18.6274 24 12C24 5.37258 18.6274 0 12 0C5.37258 0 0 5.37258 0 12C0 18.6274 5.37258 24 12 24ZM13 16C13 16.5523 12.5523 17 12 17C11.4477 17 11 16.5523 11 16C11 15.4477 11.4477 15 12 15C12.5523 15 13 15.4477 13 16ZM11 10C11 9.44771 11.4477 9 12 9C12.5523 9 13 9.44771 13 10C13 10.5523 12.5523 11 12 11C11.4477 11 11 11.4477 11 12V13C11 13.5523 11.4477 14 12 14C12.5523 14 13 13.5523 13 13V12.8293C14.1652 12.4175 15 11.3062 15 10C15 8.34315 13.6569 7 12 7C10.3431 7 9 8.34315 9 10C9 10.5523 9.44771 11 10 11C10.5523 11 11 10.5523 11 10Z" fill="#444444"/>
</svg>
